<mxfile modified="2022-02-16T07:03:44.682Z" host="app.diagrams.net" agent="5.0 (Windows NT 10.0; WOW64) AppleWebKit/537.36 (KHTML, like Gecko) Chrome/79.0.3945.79 Safari/537.36" etag="vCc9eSQ_G6qGaJ6F9Gbi" version="16.5.6" type="github">
  <diagram id="Ht1M8jgEwFfnCIfOTk4-" name="Page-1">
    <mxGraphModel dx="1382" dy="-55" grid="0" gridSize="10" guides="1" tooltips="1" connect="0" arrows="1" fold="1" page="1" pageScale="1" pageWidth="1169" pageHeight="827" math="0" shadow="0">
      <root>
        <mxCell id="0" />
        <mxCell id="1" parent="0" />
        <mxCell id="StkEX8WNFYKrYod38pFv-10" value="" style="rounded=1;whiteSpace=wrap;html=1;fillColor=#d5e8d4;strokeColor=#82b366;glass=1;shadow=1;labelBackgroundColor=none;labelBorderColor=none;sketch=1;" parent="1" vertex="1">
          <mxGeometry x="169" y="877" width="908" height="453" as="geometry" />
        </mxCell>
        <mxCell id="StkEX8WNFYKrYod38pFv-9" value="&lt;h1 style=&quot;font-size: 30px&quot;&gt;智小金智能家居管理系统&lt;/h1&gt;" style="text;html=1;strokeColor=none;fillColor=default;spacing=5;spacingTop=-20;whiteSpace=wrap;overflow=hidden;rounded=1;fontSize=30;labelBorderColor=none;labelBackgroundColor=none;fontStyle=0;shadow=1;glass=1;sketch=1;fontColor=#FF0000;" parent="1" vertex="1">
          <mxGeometry x="432" y="903" width="350" height="46" as="geometry" />
        </mxCell>
        <mxCell id="MBSTme_2oMOcWK-TbNuE-2" value="" style="rounded=1;whiteSpace=wrap;html=1;fontSize=20;fillColor=#fff2cc;strokeColor=#d6b656;shadow=1;glass=1;sketch=1;" vertex="1" parent="1">
          <mxGeometry x="182" y="1014" width="154" height="268" as="geometry" />
        </mxCell>
        <mxCell id="MBSTme_2oMOcWK-TbNuE-5" value="" style="rounded=1;whiteSpace=wrap;html=1;fontSize=20;sketch=1;shadow=1;glass=1;" vertex="1" parent="1">
          <mxGeometry x="193.5" y="1075" width="122.5" height="166" as="geometry" />
        </mxCell>
        <mxCell id="MBSTme_2oMOcWK-TbNuE-1" value="用户管理" style="rounded=1;whiteSpace=wrap;html=1;fontSize=16;fontStyle=1;fillColor=#f5f5f5;strokeColor=#666666;fontColor=#333333;shadow=1;glass=1;sketch=1;" vertex="1" parent="1">
          <mxGeometry x="213" y="1091.5" width="82" height="32" as="geometry" />
        </mxCell>
        <mxCell id="MBSTme_2oMOcWK-TbNuE-4" value="系统管理" style="text;html=1;strokeColor=none;fillColor=none;align=center;verticalAlign=middle;whiteSpace=wrap;rounded=1;fontSize=25;fontStyle=1;labelBackgroundColor=default;labelBorderColor=none;glass=1;shadow=1;sketch=1;fontColor=#FF9933;" vertex="1" parent="1">
          <mxGeometry x="196" y="1032" width="120" height="30" as="geometry" />
        </mxCell>
        <mxCell id="MBSTme_2oMOcWK-TbNuE-6" value="角色管理" style="rounded=1;whiteSpace=wrap;html=1;fontSize=16;fontStyle=1;fillColor=#f5f5f5;strokeColor=#666666;fontColor=#333333;glass=1;shadow=1;sketch=1;" vertex="1" parent="1">
          <mxGeometry x="213" y="1141" width="82" height="32" as="geometry" />
        </mxCell>
        <mxCell id="MBSTme_2oMOcWK-TbNuE-7" value="菜单管理" style="rounded=1;whiteSpace=wrap;html=1;fontSize=16;fontStyle=1;fillColor=#f5f5f5;strokeColor=#666666;fontColor=#333333;glass=1;shadow=1;sketch=1;" vertex="1" parent="1">
          <mxGeometry x="216.5" y="1191" width="82" height="32" as="geometry" />
        </mxCell>
        <mxCell id="MBSTme_2oMOcWK-TbNuE-9" value="" style="rounded=1;whiteSpace=wrap;html=1;fontSize=20;fillColor=#fff2cc;strokeColor=#d6b656;shadow=1;glass=1;sketch=1;" vertex="1" parent="1">
          <mxGeometry x="369" y="1009" width="154" height="268" as="geometry" />
        </mxCell>
        <mxCell id="MBSTme_2oMOcWK-TbNuE-10" value="" style="rounded=1;whiteSpace=wrap;html=1;fontSize=20;sketch=1;shadow=1;glass=1;" vertex="1" parent="1">
          <mxGeometry x="380.5" y="1070" width="122.5" height="166" as="geometry" />
        </mxCell>
        <mxCell id="MBSTme_2oMOcWK-TbNuE-11" value="总体概况" style="rounded=1;whiteSpace=wrap;html=1;fontSize=16;fontStyle=1;fillColor=#f5f5f5;strokeColor=#666666;fontColor=#333333;shadow=1;glass=1;sketch=1;" vertex="1" parent="1">
          <mxGeometry x="400" y="1086.5" width="82" height="32" as="geometry" />
        </mxCell>
        <mxCell id="MBSTme_2oMOcWK-TbNuE-12" value="统计" style="text;html=1;strokeColor=none;fillColor=none;align=center;verticalAlign=middle;whiteSpace=wrap;rounded=1;fontSize=25;fontStyle=1;labelBackgroundColor=default;labelBorderColor=none;glass=1;shadow=1;sketch=1;fontColor=#FF9933;" vertex="1" parent="1">
          <mxGeometry x="383" y="1027" width="120" height="30" as="geometry" />
        </mxCell>
        <mxCell id="MBSTme_2oMOcWK-TbNuE-13" value="设备统计" style="rounded=1;whiteSpace=wrap;html=1;fontSize=16;fontStyle=1;fillColor=#f5f5f5;strokeColor=#666666;fontColor=#333333;glass=1;shadow=1;sketch=1;" vertex="1" parent="1">
          <mxGeometry x="400" y="1136" width="82" height="32" as="geometry" />
        </mxCell>
        <mxCell id="MBSTme_2oMOcWK-TbNuE-14" value="用户统计" style="rounded=1;whiteSpace=wrap;html=1;fontSize=16;fontStyle=1;fillColor=#f5f5f5;strokeColor=#666666;fontColor=#333333;glass=1;shadow=1;sketch=1;" vertex="1" parent="1">
          <mxGeometry x="403.5" y="1186" width="82" height="32" as="geometry" />
        </mxCell>
        <mxCell id="MBSTme_2oMOcWK-TbNuE-15" value="" style="rounded=1;whiteSpace=wrap;html=1;fontSize=20;fillColor=#fff2cc;strokeColor=#d6b656;shadow=1;glass=1;sketch=1;" vertex="1" parent="1">
          <mxGeometry x="557" y="1011" width="154" height="268" as="geometry" />
        </mxCell>
        <mxCell id="MBSTme_2oMOcWK-TbNuE-16" value="" style="rounded=1;whiteSpace=wrap;html=1;fontSize=20;sketch=1;shadow=1;glass=1;" vertex="1" parent="1">
          <mxGeometry x="568.5" y="1072" width="122.5" height="166" as="geometry" />
        </mxCell>
        <mxCell id="MBSTme_2oMOcWK-TbNuE-17" value="新品上市" style="rounded=1;whiteSpace=wrap;html=1;fontSize=16;fontStyle=1;fillColor=#f5f5f5;strokeColor=#666666;fontColor=#333333;shadow=1;glass=1;sketch=1;" vertex="1" parent="1">
          <mxGeometry x="588" y="1088.5" width="82" height="32" as="geometry" />
        </mxCell>
        <mxCell id="MBSTme_2oMOcWK-TbNuE-18" value="营销管理" style="text;html=1;strokeColor=none;fillColor=none;align=center;verticalAlign=middle;whiteSpace=wrap;rounded=1;fontSize=25;fontStyle=1;labelBackgroundColor=default;labelBorderColor=none;glass=1;shadow=1;sketch=1;fontColor=#FF9933;" vertex="1" parent="1">
          <mxGeometry x="571" y="1029" width="120" height="30" as="geometry" />
        </mxCell>
        <mxCell id="MBSTme_2oMOcWK-TbNuE-19" value="生日推送" style="rounded=1;whiteSpace=wrap;html=1;fontSize=16;fontStyle=1;fillColor=#f5f5f5;strokeColor=#666666;fontColor=#333333;glass=1;shadow=1;sketch=1;" vertex="1" parent="1">
          <mxGeometry x="588" y="1138" width="82" height="32" as="geometry" />
        </mxCell>
        <mxCell id="MBSTme_2oMOcWK-TbNuE-20" value="搭配推送" style="rounded=1;whiteSpace=wrap;html=1;fontSize=16;fontStyle=1;fillColor=#f5f5f5;strokeColor=#666666;fontColor=#333333;glass=1;shadow=1;sketch=1;" vertex="1" parent="1">
          <mxGeometry x="586" y="1189" width="82" height="32" as="geometry" />
        </mxCell>
        <mxCell id="MBSTme_2oMOcWK-TbNuE-33" style="rounded=0;orthogonalLoop=1;jettySize=auto;html=1;fontSize=21;fontColor=#FF0000;strokeWidth=3;" edge="1" parent="1" source="MBSTme_2oMOcWK-TbNuE-9" target="MBSTme_2oMOcWK-TbNuE-32">
          <mxGeometry relative="1" as="geometry" />
        </mxCell>
        <mxCell id="MBSTme_2oMOcWK-TbNuE-34" value="获取数据" style="edgeLabel;html=1;align=center;verticalAlign=middle;resizable=0;points=[];fontSize=21;fontColor=#050505;fontStyle=1" vertex="1" connectable="0" parent="MBSTme_2oMOcWK-TbNuE-33">
          <mxGeometry x="0.0946" y="2" relative="1" as="geometry">
            <mxPoint y="1" as="offset" />
          </mxGeometry>
        </mxCell>
        <mxCell id="MBSTme_2oMOcWK-TbNuE-21" value="" style="rounded=1;whiteSpace=wrap;html=1;fontSize=20;fillColor=#fff2cc;strokeColor=#d6b656;shadow=1;glass=1;sketch=1;" vertex="1" parent="1">
          <mxGeometry x="736.5" y="1012.5" width="154" height="268" as="geometry" />
        </mxCell>
        <mxCell id="MBSTme_2oMOcWK-TbNuE-22" value="" style="rounded=1;whiteSpace=wrap;html=1;fontSize=20;sketch=1;shadow=1;glass=1;" vertex="1" parent="1">
          <mxGeometry x="748" y="1073.5" width="122.5" height="123" as="geometry" />
        </mxCell>
        <mxCell id="MBSTme_2oMOcWK-TbNuE-23" value="语音报警" style="rounded=1;whiteSpace=wrap;html=1;fontSize=16;fontStyle=1;fillColor=#f5f5f5;strokeColor=#666666;fontColor=#333333;shadow=1;glass=1;sketch=1;" vertex="1" parent="1">
          <mxGeometry x="767.5" y="1090" width="82" height="32" as="geometry" />
        </mxCell>
        <mxCell id="MBSTme_2oMOcWK-TbNuE-24" value="增值服务" style="text;html=1;strokeColor=none;fillColor=none;align=center;verticalAlign=middle;whiteSpace=wrap;rounded=1;fontSize=25;fontStyle=1;labelBackgroundColor=default;labelBorderColor=none;glass=1;shadow=1;sketch=1;fontColor=#FF9933;" vertex="1" parent="1">
          <mxGeometry x="750.5" y="1030.5" width="120" height="30" as="geometry" />
        </mxCell>
        <mxCell id="MBSTme_2oMOcWK-TbNuE-25" value="清洗服务" style="rounded=1;whiteSpace=wrap;html=1;fontSize=16;fontStyle=1;fillColor=#f5f5f5;strokeColor=#666666;fontColor=#333333;glass=1;shadow=1;sketch=1;" vertex="1" parent="1">
          <mxGeometry x="767.5" y="1139.5" width="82" height="32" as="geometry" />
        </mxCell>
        <mxCell id="MBSTme_2oMOcWK-TbNuE-37" style="edgeStyle=none;rounded=0;orthogonalLoop=1;jettySize=auto;html=1;fontSize=21;fontColor=#FF0000;strokeWidth=3;" edge="1" parent="1" source="MBSTme_2oMOcWK-TbNuE-27" target="MBSTme_2oMOcWK-TbNuE-36">
          <mxGeometry relative="1" as="geometry" />
        </mxCell>
        <mxCell id="MBSTme_2oMOcWK-TbNuE-38" value="获取数据" style="edgeLabel;html=1;align=center;verticalAlign=middle;resizable=0;points=[];fontSize=21;fontColor=#050505;fontStyle=1" vertex="1" connectable="0" parent="MBSTme_2oMOcWK-TbNuE-37">
          <mxGeometry x="0.2608" y="1" relative="1" as="geometry">
            <mxPoint as="offset" />
          </mxGeometry>
        </mxCell>
        <mxCell id="MBSTme_2oMOcWK-TbNuE-27" value="" style="rounded=1;whiteSpace=wrap;html=1;fontSize=20;fillColor=#fff2cc;strokeColor=#d6b656;shadow=1;glass=1;sketch=1;" vertex="1" parent="1">
          <mxGeometry x="907.5" y="1015.5" width="154" height="268" as="geometry" />
        </mxCell>
        <mxCell id="MBSTme_2oMOcWK-TbNuE-28" value="" style="rounded=1;whiteSpace=wrap;html=1;fontSize=20;sketch=1;shadow=1;glass=1;" vertex="1" parent="1">
          <mxGeometry x="919" y="1076.5" width="122.5" height="73.5" as="geometry" />
        </mxCell>
        <mxCell id="MBSTme_2oMOcWK-TbNuE-29" value="售后表单" style="rounded=1;whiteSpace=wrap;html=1;fontSize=16;fontStyle=1;fillColor=#f5f5f5;strokeColor=#666666;fontColor=#333333;shadow=1;glass=1;sketch=1;" vertex="1" parent="1">
          <mxGeometry x="938.5" y="1093" width="82" height="32" as="geometry" />
        </mxCell>
        <mxCell id="MBSTme_2oMOcWK-TbNuE-30" value="运营管理" style="text;html=1;strokeColor=none;fillColor=none;align=center;verticalAlign=middle;whiteSpace=wrap;rounded=1;fontSize=25;fontStyle=1;labelBackgroundColor=default;labelBorderColor=none;glass=1;shadow=1;sketch=1;fontColor=#FF9933;" vertex="1" parent="1">
          <mxGeometry x="921.5" y="1033.5" width="120" height="30" as="geometry" />
        </mxCell>
        <mxCell id="MBSTme_2oMOcWK-TbNuE-32" value="鲲鹭云" style="ellipse;whiteSpace=wrap;html=1;rounded=1;shadow=1;glass=1;labelBackgroundColor=none;labelBorderColor=none;sketch=1;fontSize=21;fillColor=#d5e8d4;strokeColor=#82b366;fontStyle=1" vertex="1" parent="1">
          <mxGeometry x="159" y="1425" width="224" height="129" as="geometry" />
        </mxCell>
        <mxCell id="MBSTme_2oMOcWK-TbNuE-36" value="智小金微信公众号" style="ellipse;whiteSpace=wrap;html=1;rounded=1;shadow=1;glass=1;labelBackgroundColor=none;labelBorderColor=none;sketch=1;fontSize=21;fillColor=#d5e8d4;strokeColor=#82b366;fontStyle=1" vertex="1" parent="1">
          <mxGeometry x="893" y="1425" width="224" height="129" as="geometry" />
        </mxCell>
      </root>
    </mxGraphModel>
  </diagram>
</mxfile>
